<svg width="440" height="405" viewBox="0 0 440 405" fill="none" xmlns="http://www.w3.org/2000/svg">
<g filter="url(#filter0_i_76_69)">
<path d="M437.495 1.61124L256.962 402.611L183.602 402.611L2.49537 1.6112L95.2938 1.61124L172.952 182.348L250.61 363.084L190.829 363.084L268.2 182.348L345.572 1.61126L437.495 1.61124ZM345.572 1.61126L341.449 71.8696L265.74 71.8696L237.62 1.61125L345.572 1.61126Z" fill="#FBB26C"/>
<path d="M219.485 71.8696L190.829 1.61125L95.2938 1.61124L100.499 73.0153L219.485 71.8696Z" fill="#FBB26C"/>
</g>
<path d="M183.082 403.417L182.867 402.943L1.76102 1.9432L1.24735 0.805504L191.37 0.80552L191.574 1.30747L220.231 71.5653L220.679 72.6639L219.492 72.6747L127.087 73.5653L173.692 182.03L220.663 291.348L267.459 182.031L314.274 72.6756L265.196 72.6756L264.992 72.1688L236.872 1.91099L236.43 0.805524L438.741 0.805542L438.23 1.94226L257.697 402.942L257.483 403.417L183.082 403.417Z" stroke="black" stroke-width="1.61115"/>
<defs>
<filter id="filter0_i_76_69" x="0" y="0" width="439.988" height="412.222" filterUnits="userSpaceOnUse" color-interpolation-filters="sRGB">
<feFlood flood-opacity="0" result="BackgroundImageFix"/>
<feBlend mode="normal" in="SourceGraphic" in2="BackgroundImageFix" result="shape"/>
<feColorMatrix in="SourceAlpha" type="matrix" values="0 0 0 0 0 0 0 0 0 0 0 0 0 0 0 0 0 0 127 0" result="hardAlpha"/>
<feOffset dy="8"/>
<feGaussianBlur stdDeviation="8"/>
<feComposite in2="hardAlpha" operator="arithmetic" k2="-1" k3="1"/>
<feColorMatrix type="matrix" values="0 0 0 0 0 0 0 0 0 0 0 0 0 0 0 0 0 0 1 0"/>
<feBlend mode="normal" in2="shape" result="effect1_innerShadow_76_69"/>
</filter>
</defs>
</svg>
